<?xml version="1.0" encoding="UTF-8" standalone="no"?><!-- Generator: Gravit.io --><svg xmlns="http://www.w3.org/2000/svg" xmlns:xlink="http://www.w3.org/1999/xlink" style="isolation:isolate" viewBox="0 0 128 128" width="128pt" height="128pt"><defs><clipPath id="_clipPath_v3Ux0eCJhOpI5UAqj5K7ljeUeUUyeXxZ"><rect width="128" height="128"/></clipPath></defs><g clip-path="url(#_clipPath_v3Ux0eCJhOpI5UAqj5K7ljeUeUUyeXxZ)"><linearGradient id="_lgradient_0" x1="0.15397135416666677" y1="0.4998779296875" x2="0.85144257127193" y2="0.5020944695723685" gradientTransform="matrix(48,0,0,118,40,0)" gradientUnits="userSpaceOnUse"><stop offset="0%" stop-opacity="1" style="stop-color:rgb(187,186,186)"/><stop offset="46.95652173913044%" stop-opacity="1" style="stop-color:rgb(139,136,136)"/><stop offset="53.04347826086957%" stop-opacity="1" style="stop-color:rgb(119,111,111)"/><stop offset="59.56521739130435%" stop-opacity="1" style="stop-color:rgb(129,125,125)"/><stop offset="97.3913043478261%" stop-opacity="1" style="stop-color:rgb(106,105,105)"/></linearGradient><path d=" M 64 0 C 69 4.167 73.677 9.177 78 15 C 76.666 39.333 76.676 63.01 78 86 L 88 86 C 87.948 90.404 87.958 94.08 88 97 L 74 97 L 74 118 L 54 118 L 54 97 L 40 97 L 40 86 L 50 86 C 51 63.167 51.01 39.51 50 15 C 53.402 9.242 58.079 4.252 64 0 Z " fill="url(#_lgradient_0)"/><path d=" M 40 86 C 56.967 84.199 72.977 84.209 88 86 C 88.986 89.883 88.996 93.56 88 97 L 40 97 C 38.597 93.462 38.607 89.805 40 86 Z " fill="rgb(244,184,5)"/><linearGradient id="_lgradient_1" x1="-0.059765624999999836" y1="0.7692307692307696" x2="0.9752343749999997" y2="0.02283653846153877" gradientTransform="matrix(20,0,0,26,54,97)" gradientUnits="userSpaceOnUse"><stop offset="0%" stop-opacity="1" style="stop-color:rgb(204,110,110)"/><stop offset="97.82608695652173%" stop-opacity="1" style="stop-color:rgb(202,26,26)"/></linearGradient><path d=" M 54 97 L 54 123 L 74 123 L 74 97 L 54 97 Z " fill="url(#_lgradient_1)"/><path d=" M 53 123 L 75 123 C 75.543 124.271 75.553 125.614 75 127 C 67.854 128.293 60.531 128.303 53 127 C 52.325 125.83 52.345 124.517 53 123 Z " fill="rgb(244,184,5)"/></g></svg>